<mxfile host="app.diagrams.net" modified="2024-01-28T13:50:14.059Z" agent="Mozilla/5.0 (Windows NT 10.0; Win64; x64) AppleWebKit/537.36 (KHTML, like Gecko) Chrome/120.0.0.0 Safari/537.36 OPR/106.0.0.0" etag="JUNHQ0eNS3gaE71rckz9" version="22.1.21" type="google">
  <diagram name="Page-1" id="PZ6d2m8yI6Y4k2cU-unb">
    <mxGraphModel grid="1" page="1" gridSize="10" guides="1" tooltips="1" connect="1" arrows="1" fold="1" pageScale="1" pageWidth="850" pageHeight="1100" math="0" shadow="0">
      <root>
        <mxCell id="0" />
        <mxCell id="1" parent="0" />
        <mxCell id="7I-5UgNqQr5wEM3YDe3Y-1" value="Market study" style="rounded=0;whiteSpace=wrap;html=1;fontSize=15;" vertex="1" parent="1">
          <mxGeometry x="250" y="850" width="70" height="60" as="geometry" />
        </mxCell>
        <mxCell id="7I-5UgNqQr5wEM3YDe3Y-4" value="" style="endArrow=classic;html=1;rounded=0;exitX=1;exitY=1;exitDx=0;exitDy=0;entryX=0;entryY=0.5;entryDx=0;entryDy=0;" edge="1" parent="1" source="7I-5UgNqQr5wEM3YDe3Y-1" target="7I-5UgNqQr5wEM3YDe3Y-128">
          <mxGeometry width="50" height="50" relative="1" as="geometry">
            <mxPoint x="350" y="250" as="sourcePoint" />
            <mxPoint x="530" y="1230" as="targetPoint" />
            <Array as="points">
              <mxPoint x="360" y="1350" />
            </Array>
          </mxGeometry>
        </mxCell>
        <mxCell id="7I-5UgNqQr5wEM3YDe3Y-11" value="Market study &lt;br&gt;result" style="ellipse;whiteSpace=wrap;html=1;aspect=fixed;fontSize=15;" vertex="1" parent="1">
          <mxGeometry x="420" y="660" width="80" height="80" as="geometry" />
        </mxCell>
        <mxCell id="7I-5UgNqQr5wEM3YDe3Y-12" value="" style="endArrow=classic;html=1;rounded=0;entryX=0;entryY=0.5;entryDx=0;entryDy=0;exitX=1;exitY=0;exitDx=0;exitDy=0;" edge="1" parent="1" source="7I-5UgNqQr5wEM3YDe3Y-1" target="7I-5UgNqQr5wEM3YDe3Y-11">
          <mxGeometry width="50" height="50" relative="1" as="geometry">
            <mxPoint x="360" y="840" as="sourcePoint" />
            <mxPoint x="520" y="730" as="targetPoint" />
            <Array as="points">
              <mxPoint x="360" y="700" />
            </Array>
          </mxGeometry>
        </mxCell>
        <mxCell id="7I-5UgNqQr5wEM3YDe3Y-13" value="Enter market" style="rounded=0;whiteSpace=wrap;html=1;fontSize=15;" vertex="1" parent="1">
          <mxGeometry x="580" y="520" width="70" height="60" as="geometry" />
        </mxCell>
        <mxCell id="7I-5UgNqQr5wEM3YDe3Y-14" value="" style="endArrow=classic;html=1;rounded=0;exitX=1;exitY=0;exitDx=0;exitDy=0;entryX=0;entryY=0.5;entryDx=0;entryDy=0;" edge="1" parent="1" source="7I-5UgNqQr5wEM3YDe3Y-11" target="7I-5UgNqQr5wEM3YDe3Y-13">
          <mxGeometry width="50" height="50" relative="1" as="geometry">
            <mxPoint x="990" y="730" as="sourcePoint" />
            <mxPoint x="1040" y="680" as="targetPoint" />
            <Array as="points">
              <mxPoint x="520" y="550" />
            </Array>
          </mxGeometry>
        </mxCell>
        <mxCell id="7I-5UgNqQr5wEM3YDe3Y-15" value="Favourable:&lt;br&gt;0.5225" style="text;html=1;strokeColor=none;fillColor=none;align=center;verticalAlign=middle;whiteSpace=wrap;rounded=0;fontSize=15;" vertex="1" parent="1">
          <mxGeometry x="410" y="580" width="60" height="30" as="geometry" />
        </mxCell>
        <mxCell id="7I-5UgNqQr5wEM3YDe3Y-19" value="" style="endArrow=classic;html=1;rounded=0;exitX=1;exitY=1;exitDx=0;exitDy=0;entryX=0;entryY=0.5;entryDx=0;entryDy=0;" edge="1" parent="1" source="7I-5UgNqQr5wEM3YDe3Y-11" target="7I-5UgNqQr5wEM3YDe3Y-100">
          <mxGeometry width="50" height="50" relative="1" as="geometry">
            <mxPoint x="940" y="710" as="sourcePoint" />
            <mxPoint x="530" y="920" as="targetPoint" />
            <Array as="points">
              <mxPoint x="520" y="950" />
            </Array>
          </mxGeometry>
        </mxCell>
        <mxCell id="7I-5UgNqQr5wEM3YDe3Y-20" value="Unfavourable:&lt;br&gt;0.4775" style="text;html=1;strokeColor=none;fillColor=none;align=center;verticalAlign=middle;whiteSpace=wrap;rounded=0;fontSize=15;" vertex="1" parent="1">
          <mxGeometry x="410" y="780" width="60" height="30" as="geometry" />
        </mxCell>
        <mxCell id="7I-5UgNqQr5wEM3YDe3Y-36" value="Demand" style="ellipse;whiteSpace=wrap;html=1;fontSize=15;" vertex="1" parent="1">
          <mxGeometry x="960" y="740" width="80" height="80" as="geometry" />
        </mxCell>
        <mxCell id="7I-5UgNqQr5wEM3YDe3Y-37" value="" style="endArrow=classic;html=1;rounded=0;exitX=1;exitY=0;exitDx=0;exitDy=0;entryX=0;entryY=0.5;entryDx=0;entryDy=0;" edge="1" parent="1" source="7I-5UgNqQr5wEM3YDe3Y-13" target="7I-5UgNqQr5wEM3YDe3Y-78">
          <mxGeometry width="50" height="50" relative="1" as="geometry">
            <mxPoint x="680" y="540" as="sourcePoint" />
            <mxPoint x="760" y="460" as="targetPoint" />
            <Array as="points">
              <mxPoint x="670" y="480" />
            </Array>
          </mxGeometry>
        </mxCell>
        <mxCell id="7I-5UgNqQr5wEM3YDe3Y-38" value="Demand" style="ellipse;whiteSpace=wrap;html=1;fontSize=15;" vertex="1" parent="1">
          <mxGeometry x="960" y="340" width="80" height="80" as="geometry" />
        </mxCell>
        <mxCell id="7I-5UgNqQr5wEM3YDe3Y-46" value="Enter" style="text;html=1;strokeColor=none;fillColor=none;align=center;verticalAlign=middle;whiteSpace=wrap;rounded=0;fontSize=15;" vertex="1" parent="1">
          <mxGeometry x="690" y="440" width="60" height="30" as="geometry" />
        </mxCell>
        <mxCell id="7I-5UgNqQr5wEM3YDe3Y-48" value="" style="endArrow=classic;html=1;rounded=0;exitX=1;exitY=0.5;exitDx=0;exitDy=0;" edge="1" parent="1">
          <mxGeometry width="50" height="50" relative="1" as="geometry">
            <mxPoint x="1040" y="780" as="sourcePoint" />
            <mxPoint x="1160" y="710" as="targetPoint" />
            <Array as="points">
              <mxPoint x="1060" y="710" />
            </Array>
          </mxGeometry>
        </mxCell>
        <mxCell id="7I-5UgNqQr5wEM3YDe3Y-49" value="" style="endArrow=classic;html=1;rounded=0;exitX=1;exitY=0.5;exitDx=0;exitDy=0;" edge="1" parent="1">
          <mxGeometry width="50" height="50" relative="1" as="geometry">
            <mxPoint x="1040" y="780" as="sourcePoint" />
            <mxPoint x="1160" y="850" as="targetPoint" />
            <Array as="points">
              <mxPoint x="1060" y="850" />
            </Array>
          </mxGeometry>
        </mxCell>
        <mxCell id="7I-5UgNqQr5wEM3YDe3Y-50" value="" style="endArrow=classic;html=1;rounded=0;exitX=1;exitY=0.5;exitDx=0;exitDy=0;" edge="1" parent="1">
          <mxGeometry width="50" height="50" relative="1" as="geometry">
            <mxPoint x="1040" y="780" as="sourcePoint" />
            <mxPoint x="1160" y="780" as="targetPoint" />
          </mxGeometry>
        </mxCell>
        <mxCell id="7I-5UgNqQr5wEM3YDe3Y-51" value="Low: 0.397906" style="text;html=1;strokeColor=none;fillColor=none;align=center;verticalAlign=middle;whiteSpace=wrap;rounded=0;fontSize=15;" vertex="1" parent="1">
          <mxGeometry x="1060" y="680" width="110" height="30" as="geometry" />
        </mxCell>
        <mxCell id="7I-5UgNqQr5wEM3YDe3Y-52" value="Med: 0.565445" style="text;html=1;strokeColor=none;fillColor=none;align=center;verticalAlign=middle;whiteSpace=wrap;rounded=0;fontSize=15;" vertex="1" parent="1">
          <mxGeometry x="1060" y="750" width="110" height="30" as="geometry" />
        </mxCell>
        <mxCell id="7I-5UgNqQr5wEM3YDe3Y-53" value="High: 0.036649" style="text;html=1;strokeColor=none;fillColor=none;align=center;verticalAlign=middle;whiteSpace=wrap;rounded=0;fontSize=15;" vertex="1" parent="1">
          <mxGeometry x="1060" y="820" width="110" height="30" as="geometry" />
        </mxCell>
        <mxCell id="7I-5UgNqQr5wEM3YDe3Y-60" value="" style="endArrow=classic;html=1;rounded=0;exitX=1;exitY=1;exitDx=0;exitDy=0;" edge="1" parent="1">
          <mxGeometry width="50" height="50" relative="1" as="geometry">
            <mxPoint x="650" y="580" as="sourcePoint" />
            <mxPoint x="760" y="610" as="targetPoint" />
            <Array as="points">
              <mxPoint x="680" y="610" />
            </Array>
          </mxGeometry>
        </mxCell>
        <mxCell id="7I-5UgNqQr5wEM3YDe3Y-61" value="Not enter" style="text;html=1;strokeColor=none;fillColor=none;align=center;verticalAlign=middle;whiteSpace=wrap;rounded=0;fontSize=15;" vertex="1" parent="1">
          <mxGeometry x="690" y="570" width="60" height="30" as="geometry" />
        </mxCell>
        <mxCell id="7I-5UgNqQr5wEM3YDe3Y-62" value="0" style="text;html=1;strokeColor=none;fillColor=none;align=center;verticalAlign=middle;whiteSpace=wrap;rounded=0;fontStyle=1;fontSize=19;" vertex="1" parent="1">
          <mxGeometry x="760" y="600" width="60" height="30" as="geometry" />
        </mxCell>
        <mxCell id="7I-5UgNqQr5wEM3YDe3Y-72" value="" style="endArrow=classic;html=1;rounded=0;exitX=1;exitY=0.5;exitDx=0;exitDy=0;" edge="1" parent="1">
          <mxGeometry width="50" height="50" relative="1" as="geometry">
            <mxPoint x="1040" y="380" as="sourcePoint" />
            <mxPoint x="1160" y="310" as="targetPoint" />
            <Array as="points">
              <mxPoint x="1060" y="310" />
            </Array>
          </mxGeometry>
        </mxCell>
        <mxCell id="7I-5UgNqQr5wEM3YDe3Y-73" value="" style="endArrow=classic;html=1;rounded=0;exitX=1;exitY=0.5;exitDx=0;exitDy=0;" edge="1" parent="1">
          <mxGeometry width="50" height="50" relative="1" as="geometry">
            <mxPoint x="1040" y="380" as="sourcePoint" />
            <mxPoint x="1160" y="450" as="targetPoint" />
            <Array as="points">
              <mxPoint x="1060" y="450" />
            </Array>
          </mxGeometry>
        </mxCell>
        <mxCell id="7I-5UgNqQr5wEM3YDe3Y-74" value="" style="endArrow=classic;html=1;rounded=0;exitX=1;exitY=0.5;exitDx=0;exitDy=0;" edge="1" parent="1">
          <mxGeometry width="50" height="50" relative="1" as="geometry">
            <mxPoint x="1040" y="380" as="sourcePoint" />
            <mxPoint x="1160" y="380" as="targetPoint" />
          </mxGeometry>
        </mxCell>
        <mxCell id="7I-5UgNqQr5wEM3YDe3Y-75" value="Low: 0.0191319" style="text;html=1;strokeColor=none;fillColor=none;align=center;verticalAlign=middle;whiteSpace=wrap;rounded=0;fontSize=15;" vertex="1" parent="1">
          <mxGeometry x="1060" y="280" width="110" height="30" as="geometry" />
        </mxCell>
        <mxCell id="7I-5UgNqQr5wEM3YDe3Y-76" value="Med: 0.344498" style="text;html=1;strokeColor=none;fillColor=none;align=center;verticalAlign=middle;whiteSpace=wrap;rounded=0;fontSize=15;" vertex="1" parent="1">
          <mxGeometry x="1060" y="350" width="110" height="30" as="geometry" />
        </mxCell>
        <mxCell id="7I-5UgNqQr5wEM3YDe3Y-77" value="High: 0.636394" style="text;html=1;strokeColor=none;fillColor=none;align=center;verticalAlign=middle;whiteSpace=wrap;rounded=0;fontSize=15;" vertex="1" parent="1">
          <mxGeometry x="1060" y="420" width="110" height="30" as="geometry" />
        </mxCell>
        <mxCell id="7I-5UgNqQr5wEM3YDe3Y-78" value="Design choide" style="rounded=0;whiteSpace=wrap;html=1;fontSize=15;" vertex="1" parent="1">
          <mxGeometry x="765" y="450" width="70" height="60" as="geometry" />
        </mxCell>
        <mxCell id="7I-5UgNqQr5wEM3YDe3Y-79" value="" style="endArrow=classic;html=1;rounded=0;exitX=1;exitY=0;exitDx=0;exitDy=0;entryX=0;entryY=0.5;entryDx=0;entryDy=0;" edge="1" parent="1" source="7I-5UgNqQr5wEM3YDe3Y-78" target="7I-5UgNqQr5wEM3YDe3Y-38">
          <mxGeometry width="50" height="50" relative="1" as="geometry">
            <mxPoint x="990" y="470" as="sourcePoint" />
            <mxPoint x="1040" y="420" as="targetPoint" />
            <Array as="points">
              <mxPoint x="860" y="380" />
            </Array>
          </mxGeometry>
        </mxCell>
        <mxCell id="7I-5UgNqQr5wEM3YDe3Y-80" value="Demand" style="ellipse;whiteSpace=wrap;html=1;fontSize=15;" vertex="1" parent="1">
          <mxGeometry x="960" y="540" width="80" height="80" as="geometry" />
        </mxCell>
        <mxCell id="7I-5UgNqQr5wEM3YDe3Y-81" value="" style="endArrow=classic;html=1;rounded=0;exitX=1;exitY=0.5;exitDx=0;exitDy=0;" edge="1" parent="1">
          <mxGeometry width="50" height="50" relative="1" as="geometry">
            <mxPoint x="1040" y="580" as="sourcePoint" />
            <mxPoint x="1160" y="510" as="targetPoint" />
            <Array as="points">
              <mxPoint x="1060" y="510" />
            </Array>
          </mxGeometry>
        </mxCell>
        <mxCell id="7I-5UgNqQr5wEM3YDe3Y-82" value="" style="endArrow=classic;html=1;rounded=0;exitX=1;exitY=0.5;exitDx=0;exitDy=0;" edge="1" parent="1">
          <mxGeometry width="50" height="50" relative="1" as="geometry">
            <mxPoint x="1040" y="580" as="sourcePoint" />
            <mxPoint x="1160" y="650" as="targetPoint" />
            <Array as="points">
              <mxPoint x="1060" y="650" />
            </Array>
          </mxGeometry>
        </mxCell>
        <mxCell id="7I-5UgNqQr5wEM3YDe3Y-83" value="" style="endArrow=classic;html=1;rounded=0;exitX=1;exitY=0.5;exitDx=0;exitDy=0;" edge="1" parent="1">
          <mxGeometry width="50" height="50" relative="1" as="geometry">
            <mxPoint x="1040" y="580" as="sourcePoint" />
            <mxPoint x="1160" y="580" as="targetPoint" />
          </mxGeometry>
        </mxCell>
        <mxCell id="7I-5UgNqQr5wEM3YDe3Y-84" value="Low: 0.0191319" style="text;html=1;strokeColor=none;fillColor=none;align=center;verticalAlign=middle;whiteSpace=wrap;rounded=0;fontSize=15;" vertex="1" parent="1">
          <mxGeometry x="1060" y="480" width="110" height="30" as="geometry" />
        </mxCell>
        <mxCell id="7I-5UgNqQr5wEM3YDe3Y-85" value="Med: 0.344498" style="text;html=1;strokeColor=none;fillColor=none;align=center;verticalAlign=middle;whiteSpace=wrap;rounded=0;fontSize=15;" vertex="1" parent="1">
          <mxGeometry x="1060" y="550" width="110" height="30" as="geometry" />
        </mxCell>
        <mxCell id="7I-5UgNqQr5wEM3YDe3Y-86" value="High: 0.636394" style="text;html=1;strokeColor=none;fillColor=none;align=center;verticalAlign=middle;whiteSpace=wrap;rounded=0;fontSize=15;" vertex="1" parent="1">
          <mxGeometry x="1060" y="620" width="110" height="30" as="geometry" />
        </mxCell>
        <mxCell id="7I-5UgNqQr5wEM3YDe3Y-87" value="" style="endArrow=classic;html=1;rounded=0;exitX=1;exitY=1;exitDx=0;exitDy=0;entryX=0;entryY=0.5;entryDx=0;entryDy=0;" edge="1" parent="1" source="7I-5UgNqQr5wEM3YDe3Y-78" target="7I-5UgNqQr5wEM3YDe3Y-80">
          <mxGeometry width="50" height="50" relative="1" as="geometry">
            <mxPoint x="840" y="440" as="sourcePoint" />
            <mxPoint x="970" y="400" as="targetPoint" />
            <Array as="points">
              <mxPoint x="860" y="580" />
            </Array>
          </mxGeometry>
        </mxCell>
        <mxCell id="7I-5UgNqQr5wEM3YDe3Y-89" value="Demand" style="ellipse;whiteSpace=wrap;html=1;fontSize=15;" vertex="1" parent="1">
          <mxGeometry x="960" y="940" width="80" height="80" as="geometry" />
        </mxCell>
        <mxCell id="7I-5UgNqQr5wEM3YDe3Y-90" value="" style="endArrow=classic;html=1;rounded=0;exitX=1;exitY=0.5;exitDx=0;exitDy=0;" edge="1" parent="1">
          <mxGeometry width="50" height="50" relative="1" as="geometry">
            <mxPoint x="1040" y="980" as="sourcePoint" />
            <mxPoint x="1160" y="910" as="targetPoint" />
            <Array as="points">
              <mxPoint x="1060" y="910" />
            </Array>
          </mxGeometry>
        </mxCell>
        <mxCell id="7I-5UgNqQr5wEM3YDe3Y-91" value="" style="endArrow=classic;html=1;rounded=0;exitX=1;exitY=0.5;exitDx=0;exitDy=0;" edge="1" parent="1">
          <mxGeometry width="50" height="50" relative="1" as="geometry">
            <mxPoint x="1040" y="980" as="sourcePoint" />
            <mxPoint x="1160" y="1050" as="targetPoint" />
            <Array as="points">
              <mxPoint x="1060" y="1050" />
            </Array>
          </mxGeometry>
        </mxCell>
        <mxCell id="7I-5UgNqQr5wEM3YDe3Y-92" value="" style="endArrow=classic;html=1;rounded=0;exitX=1;exitY=0.5;exitDx=0;exitDy=0;" edge="1" parent="1">
          <mxGeometry width="50" height="50" relative="1" as="geometry">
            <mxPoint x="1040" y="980" as="sourcePoint" />
            <mxPoint x="1160" y="980" as="targetPoint" />
          </mxGeometry>
        </mxCell>
        <mxCell id="7I-5UgNqQr5wEM3YDe3Y-93" value="Low: 0.397906" style="text;html=1;strokeColor=none;fillColor=none;align=center;verticalAlign=middle;whiteSpace=wrap;rounded=0;fontSize=15;" vertex="1" parent="1">
          <mxGeometry x="1060" y="880" width="110" height="30" as="geometry" />
        </mxCell>
        <mxCell id="7I-5UgNqQr5wEM3YDe3Y-94" value="Med: 0.565445" style="text;html=1;strokeColor=none;fillColor=none;align=center;verticalAlign=middle;whiteSpace=wrap;rounded=0;fontSize=15;" vertex="1" parent="1">
          <mxGeometry x="1060" y="950" width="110" height="30" as="geometry" />
        </mxCell>
        <mxCell id="7I-5UgNqQr5wEM3YDe3Y-95" value="High: 0.036649" style="text;html=1;strokeColor=none;fillColor=none;align=center;verticalAlign=middle;whiteSpace=wrap;rounded=0;fontSize=15;" vertex="1" parent="1">
          <mxGeometry x="1060" y="1020" width="110" height="30" as="geometry" />
        </mxCell>
        <mxCell id="7I-5UgNqQr5wEM3YDe3Y-96" value="Design choide" style="rounded=0;whiteSpace=wrap;html=1;fontSize=15;" vertex="1" parent="1">
          <mxGeometry x="765" y="850" width="70" height="60" as="geometry" />
        </mxCell>
        <mxCell id="7I-5UgNqQr5wEM3YDe3Y-97" value="" style="endArrow=classic;html=1;rounded=0;exitX=1;exitY=0;exitDx=0;exitDy=0;entryX=0;entryY=0.5;entryDx=0;entryDy=0;" edge="1" parent="1" source="7I-5UgNqQr5wEM3YDe3Y-96">
          <mxGeometry width="50" height="50" relative="1" as="geometry">
            <mxPoint x="990" y="860" as="sourcePoint" />
            <mxPoint x="960" y="780" as="targetPoint" />
            <Array as="points">
              <mxPoint x="860" y="780" />
            </Array>
          </mxGeometry>
        </mxCell>
        <mxCell id="7I-5UgNqQr5wEM3YDe3Y-98" value="" style="endArrow=classic;html=1;rounded=0;exitX=1;exitY=1;exitDx=0;exitDy=0;entryX=0;entryY=0.5;entryDx=0;entryDy=0;" edge="1" parent="1" source="7I-5UgNqQr5wEM3YDe3Y-96">
          <mxGeometry width="50" height="50" relative="1" as="geometry">
            <mxPoint x="840" y="830" as="sourcePoint" />
            <mxPoint x="960" y="970" as="targetPoint" />
            <Array as="points">
              <mxPoint x="860" y="970" />
            </Array>
          </mxGeometry>
        </mxCell>
        <mxCell id="7I-5UgNqQr5wEM3YDe3Y-100" value="Enter market" style="rounded=0;whiteSpace=wrap;html=1;fontSize=15;" vertex="1" parent="1">
          <mxGeometry x="580" y="920" width="70" height="60" as="geometry" />
        </mxCell>
        <mxCell id="7I-5UgNqQr5wEM3YDe3Y-101" value="" style="endArrow=classic;html=1;rounded=0;exitX=1;exitY=0;exitDx=0;exitDy=0;entryX=0;entryY=0.5;entryDx=0;entryDy=0;" edge="1" parent="1" source="7I-5UgNqQr5wEM3YDe3Y-100">
          <mxGeometry width="50" height="50" relative="1" as="geometry">
            <mxPoint x="680" y="940" as="sourcePoint" />
            <mxPoint x="765" y="880" as="targetPoint" />
            <Array as="points">
              <mxPoint x="670" y="880" />
            </Array>
          </mxGeometry>
        </mxCell>
        <mxCell id="7I-5UgNqQr5wEM3YDe3Y-102" value="Enter" style="text;html=1;strokeColor=none;fillColor=none;align=center;verticalAlign=middle;whiteSpace=wrap;rounded=0;fontSize=15;" vertex="1" parent="1">
          <mxGeometry x="690" y="840" width="60" height="30" as="geometry" />
        </mxCell>
        <mxCell id="7I-5UgNqQr5wEM3YDe3Y-103" value="" style="endArrow=classic;html=1;rounded=0;exitX=1;exitY=1;exitDx=0;exitDy=0;" edge="1" parent="1">
          <mxGeometry width="50" height="50" relative="1" as="geometry">
            <mxPoint x="650" y="980" as="sourcePoint" />
            <mxPoint x="760" y="1010" as="targetPoint" />
            <Array as="points">
              <mxPoint x="680" y="1010" />
            </Array>
          </mxGeometry>
        </mxCell>
        <mxCell id="7I-5UgNqQr5wEM3YDe3Y-104" value="Not enter" style="text;html=1;strokeColor=none;fillColor=none;align=center;verticalAlign=middle;whiteSpace=wrap;rounded=0;fontSize=15;" vertex="1" parent="1">
          <mxGeometry x="690" y="970" width="60" height="30" as="geometry" />
        </mxCell>
        <mxCell id="7I-5UgNqQr5wEM3YDe3Y-105" value="0" style="text;html=1;strokeColor=none;fillColor=none;align=center;verticalAlign=middle;whiteSpace=wrap;rounded=0;fontStyle=1;fontSize=19;" vertex="1" parent="1">
          <mxGeometry x="760" y="1000" width="60" height="30" as="geometry" />
        </mxCell>
        <mxCell id="7I-5UgNqQr5wEM3YDe3Y-106" value="Own &lt;br&gt;design" style="text;html=1;strokeColor=none;fillColor=none;align=center;verticalAlign=middle;whiteSpace=wrap;rounded=0;fontSize=15;" vertex="1" parent="1">
          <mxGeometry x="860" y="340" width="90" height="30" as="geometry" />
        </mxCell>
        <mxCell id="7I-5UgNqQr5wEM3YDe3Y-107" value="License" style="text;html=1;strokeColor=none;fillColor=none;align=center;verticalAlign=middle;whiteSpace=wrap;rounded=0;fontSize=15;" vertex="1" parent="1">
          <mxGeometry x="860" y="550" width="90" height="30" as="geometry" />
        </mxCell>
        <mxCell id="7I-5UgNqQr5wEM3YDe3Y-109" value="Own &lt;br&gt;design" style="text;html=1;strokeColor=none;fillColor=none;align=center;verticalAlign=middle;whiteSpace=wrap;rounded=0;fontSize=15;" vertex="1" parent="1">
          <mxGeometry x="860" y="740" width="90" height="30" as="geometry" />
        </mxCell>
        <mxCell id="7I-5UgNqQr5wEM3YDe3Y-110" value="License" style="text;html=1;strokeColor=none;fillColor=none;align=center;verticalAlign=middle;whiteSpace=wrap;rounded=0;fontSize=15;" vertex="1" parent="1">
          <mxGeometry x="860" y="935" width="90" height="30" as="geometry" />
        </mxCell>
        <mxCell id="7I-5UgNqQr5wEM3YDe3Y-111" value="Demand" style="ellipse;whiteSpace=wrap;html=1;fontSize=15;" vertex="1" parent="1">
          <mxGeometry x="960" y="1140" width="80" height="80" as="geometry" />
        </mxCell>
        <mxCell id="7I-5UgNqQr5wEM3YDe3Y-112" value="" style="endArrow=classic;html=1;rounded=0;exitX=1;exitY=0.5;exitDx=0;exitDy=0;" edge="1" parent="1">
          <mxGeometry width="50" height="50" relative="1" as="geometry">
            <mxPoint x="1040" y="1180" as="sourcePoint" />
            <mxPoint x="1160" y="1110" as="targetPoint" />
            <Array as="points">
              <mxPoint x="1060" y="1110" />
            </Array>
          </mxGeometry>
        </mxCell>
        <mxCell id="7I-5UgNqQr5wEM3YDe3Y-113" value="" style="endArrow=classic;html=1;rounded=0;exitX=1;exitY=0.5;exitDx=0;exitDy=0;" edge="1" parent="1">
          <mxGeometry width="50" height="50" relative="1" as="geometry">
            <mxPoint x="1040" y="1180" as="sourcePoint" />
            <mxPoint x="1160" y="1250" as="targetPoint" />
            <Array as="points">
              <mxPoint x="1060" y="1250" />
            </Array>
          </mxGeometry>
        </mxCell>
        <mxCell id="7I-5UgNqQr5wEM3YDe3Y-114" value="" style="endArrow=classic;html=1;rounded=0;exitX=1;exitY=0.5;exitDx=0;exitDy=0;" edge="1" parent="1">
          <mxGeometry width="50" height="50" relative="1" as="geometry">
            <mxPoint x="1040" y="1180" as="sourcePoint" />
            <mxPoint x="1160" y="1180" as="targetPoint" />
          </mxGeometry>
        </mxCell>
        <mxCell id="7I-5UgNqQr5wEM3YDe3Y-115" value="Low: 0.2" style="text;html=1;strokeColor=none;fillColor=none;align=center;verticalAlign=middle;whiteSpace=wrap;rounded=0;fontSize=15;" vertex="1" parent="1">
          <mxGeometry x="1060" y="1080" width="110" height="30" as="geometry" />
        </mxCell>
        <mxCell id="7I-5UgNqQr5wEM3YDe3Y-116" value="Med: 0.45" style="text;html=1;strokeColor=none;fillColor=none;align=center;verticalAlign=middle;whiteSpace=wrap;rounded=0;fontSize=15;" vertex="1" parent="1">
          <mxGeometry x="1060" y="1150" width="110" height="30" as="geometry" />
        </mxCell>
        <mxCell id="7I-5UgNqQr5wEM3YDe3Y-117" value="High: 0.35" style="text;html=1;strokeColor=none;fillColor=none;align=center;verticalAlign=middle;whiteSpace=wrap;rounded=0;fontSize=15;" vertex="1" parent="1">
          <mxGeometry x="1060" y="1220" width="110" height="30" as="geometry" />
        </mxCell>
        <mxCell id="7I-5UgNqQr5wEM3YDe3Y-118" value="Demand" style="ellipse;whiteSpace=wrap;html=1;fontSize=15;" vertex="1" parent="1">
          <mxGeometry x="960" y="1340" width="80" height="80" as="geometry" />
        </mxCell>
        <mxCell id="7I-5UgNqQr5wEM3YDe3Y-119" value="" style="endArrow=classic;html=1;rounded=0;exitX=1;exitY=0.5;exitDx=0;exitDy=0;" edge="1" parent="1">
          <mxGeometry width="50" height="50" relative="1" as="geometry">
            <mxPoint x="1040" y="1380" as="sourcePoint" />
            <mxPoint x="1160" y="1310" as="targetPoint" />
            <Array as="points">
              <mxPoint x="1060" y="1310" />
            </Array>
          </mxGeometry>
        </mxCell>
        <mxCell id="7I-5UgNqQr5wEM3YDe3Y-120" value="" style="endArrow=classic;html=1;rounded=0;exitX=1;exitY=0.5;exitDx=0;exitDy=0;" edge="1" parent="1">
          <mxGeometry width="50" height="50" relative="1" as="geometry">
            <mxPoint x="1040" y="1380" as="sourcePoint" />
            <mxPoint x="1160" y="1450" as="targetPoint" />
            <Array as="points">
              <mxPoint x="1060" y="1450" />
            </Array>
          </mxGeometry>
        </mxCell>
        <mxCell id="7I-5UgNqQr5wEM3YDe3Y-121" value="" style="endArrow=classic;html=1;rounded=0;exitX=1;exitY=0.5;exitDx=0;exitDy=0;" edge="1" parent="1">
          <mxGeometry width="50" height="50" relative="1" as="geometry">
            <mxPoint x="1040" y="1380" as="sourcePoint" />
            <mxPoint x="1160" y="1380" as="targetPoint" />
          </mxGeometry>
        </mxCell>
        <mxCell id="7I-5UgNqQr5wEM3YDe3Y-122" value="Low: 0.2" style="text;html=1;strokeColor=none;fillColor=none;align=center;verticalAlign=middle;whiteSpace=wrap;rounded=0;fontSize=15;" vertex="1" parent="1">
          <mxGeometry x="1060" y="1280" width="110" height="30" as="geometry" />
        </mxCell>
        <mxCell id="7I-5UgNqQr5wEM3YDe3Y-123" value="Med: 0.45" style="text;html=1;strokeColor=none;fillColor=none;align=center;verticalAlign=middle;whiteSpace=wrap;rounded=0;fontSize=15;" vertex="1" parent="1">
          <mxGeometry x="1060" y="1350" width="110" height="30" as="geometry" />
        </mxCell>
        <mxCell id="7I-5UgNqQr5wEM3YDe3Y-124" value="High: 0.35" style="text;html=1;strokeColor=none;fillColor=none;align=center;verticalAlign=middle;whiteSpace=wrap;rounded=0;fontSize=15;" vertex="1" parent="1">
          <mxGeometry x="1060" y="1420" width="110" height="30" as="geometry" />
        </mxCell>
        <mxCell id="7I-5UgNqQr5wEM3YDe3Y-125" value="Design choide" style="rounded=0;whiteSpace=wrap;html=1;fontSize=15;" vertex="1" parent="1">
          <mxGeometry x="765" y="1250" width="70" height="60" as="geometry" />
        </mxCell>
        <mxCell id="7I-5UgNqQr5wEM3YDe3Y-126" value="" style="endArrow=classic;html=1;rounded=0;exitX=1;exitY=0;exitDx=0;exitDy=0;entryX=0;entryY=0.5;entryDx=0;entryDy=0;" edge="1" parent="1" source="7I-5UgNqQr5wEM3YDe3Y-125">
          <mxGeometry width="50" height="50" relative="1" as="geometry">
            <mxPoint x="990" y="1260" as="sourcePoint" />
            <mxPoint x="960" y="1180" as="targetPoint" />
            <Array as="points">
              <mxPoint x="860" y="1180" />
            </Array>
          </mxGeometry>
        </mxCell>
        <mxCell id="7I-5UgNqQr5wEM3YDe3Y-127" value="" style="endArrow=classic;html=1;rounded=0;exitX=1;exitY=1;exitDx=0;exitDy=0;entryX=0;entryY=0.5;entryDx=0;entryDy=0;" edge="1" parent="1" source="7I-5UgNqQr5wEM3YDe3Y-125">
          <mxGeometry width="50" height="50" relative="1" as="geometry">
            <mxPoint x="840" y="1230" as="sourcePoint" />
            <mxPoint x="960" y="1370" as="targetPoint" />
            <Array as="points">
              <mxPoint x="860" y="1370" />
            </Array>
          </mxGeometry>
        </mxCell>
        <mxCell id="7I-5UgNqQr5wEM3YDe3Y-128" value="Enter market" style="rounded=0;whiteSpace=wrap;html=1;fontSize=15;" vertex="1" parent="1">
          <mxGeometry x="580" y="1320" width="70" height="60" as="geometry" />
        </mxCell>
        <mxCell id="7I-5UgNqQr5wEM3YDe3Y-129" value="" style="endArrow=classic;html=1;rounded=0;exitX=1;exitY=0;exitDx=0;exitDy=0;entryX=0;entryY=0.5;entryDx=0;entryDy=0;" edge="1" parent="1" source="7I-5UgNqQr5wEM3YDe3Y-128">
          <mxGeometry width="50" height="50" relative="1" as="geometry">
            <mxPoint x="680" y="1340" as="sourcePoint" />
            <mxPoint x="765" y="1280" as="targetPoint" />
            <Array as="points">
              <mxPoint x="670" y="1280" />
            </Array>
          </mxGeometry>
        </mxCell>
        <mxCell id="7I-5UgNqQr5wEM3YDe3Y-130" value="Enter" style="text;html=1;strokeColor=none;fillColor=none;align=center;verticalAlign=middle;whiteSpace=wrap;rounded=0;fontSize=15;" vertex="1" parent="1">
          <mxGeometry x="690" y="1240" width="60" height="30" as="geometry" />
        </mxCell>
        <mxCell id="7I-5UgNqQr5wEM3YDe3Y-131" value="" style="endArrow=classic;html=1;rounded=0;exitX=1;exitY=1;exitDx=0;exitDy=0;" edge="1" parent="1">
          <mxGeometry width="50" height="50" relative="1" as="geometry">
            <mxPoint x="650" y="1380" as="sourcePoint" />
            <mxPoint x="760" y="1410" as="targetPoint" />
            <Array as="points">
              <mxPoint x="680" y="1410" />
            </Array>
          </mxGeometry>
        </mxCell>
        <mxCell id="7I-5UgNqQr5wEM3YDe3Y-132" value="Not enter" style="text;html=1;strokeColor=none;fillColor=none;align=center;verticalAlign=middle;whiteSpace=wrap;rounded=0;fontSize=15;" vertex="1" parent="1">
          <mxGeometry x="690" y="1370" width="60" height="30" as="geometry" />
        </mxCell>
        <mxCell id="7I-5UgNqQr5wEM3YDe3Y-133" value="0" style="text;html=1;strokeColor=none;fillColor=none;align=center;verticalAlign=middle;whiteSpace=wrap;rounded=0;fontStyle=1;fontSize=19;" vertex="1" parent="1">
          <mxGeometry x="760" y="1400" width="60" height="30" as="geometry" />
        </mxCell>
        <mxCell id="7I-5UgNqQr5wEM3YDe3Y-134" value="Own &lt;br&gt;design" style="text;html=1;strokeColor=none;fillColor=none;align=center;verticalAlign=middle;whiteSpace=wrap;rounded=0;fontSize=15;" vertex="1" parent="1">
          <mxGeometry x="860" y="1140" width="90" height="30" as="geometry" />
        </mxCell>
        <mxCell id="7I-5UgNqQr5wEM3YDe3Y-135" value="License" style="text;html=1;strokeColor=none;fillColor=none;align=center;verticalAlign=middle;whiteSpace=wrap;rounded=0;fontSize=15;" vertex="1" parent="1">
          <mxGeometry x="860" y="1335" width="90" height="30" as="geometry" />
        </mxCell>
        <mxCell id="7I-5UgNqQr5wEM3YDe3Y-137" value="-5" style="text;html=1;strokeColor=none;fillColor=none;align=center;verticalAlign=middle;whiteSpace=wrap;rounded=0;fontStyle=1;fontSize=19;" vertex="1" parent="1">
          <mxGeometry x="1170" y="290" width="60" height="40" as="geometry" />
        </mxCell>
        <mxCell id="7I-5UgNqQr5wEM3YDe3Y-138" value="50" style="text;html=1;strokeColor=none;fillColor=none;align=center;verticalAlign=middle;whiteSpace=wrap;rounded=0;fontStyle=1;fontSize=19;" vertex="1" parent="1">
          <mxGeometry x="1170" y="365" width="60" height="30" as="geometry" />
        </mxCell>
        <mxCell id="7I-5UgNqQr5wEM3YDe3Y-139" value="120" style="text;html=1;strokeColor=none;fillColor=none;align=center;verticalAlign=middle;whiteSpace=wrap;rounded=0;fontStyle=1;fontSize=19;" vertex="1" parent="1">
          <mxGeometry x="1170" y="430" width="60" height="40" as="geometry" />
        </mxCell>
        <mxCell id="7I-5UgNqQr5wEM3YDe3Y-140" value="10" style="text;html=1;strokeColor=none;fillColor=none;align=center;verticalAlign=middle;whiteSpace=wrap;rounded=0;fontStyle=1;fontSize=19;" vertex="1" parent="1">
          <mxGeometry x="1170" y="490" width="60" height="40" as="geometry" />
        </mxCell>
        <mxCell id="7I-5UgNqQr5wEM3YDe3Y-141" value="70" style="text;html=1;strokeColor=none;fillColor=none;align=center;verticalAlign=middle;whiteSpace=wrap;rounded=0;fontStyle=1;fontSize=19;" vertex="1" parent="1">
          <mxGeometry x="1170" y="565" width="60" height="30" as="geometry" />
        </mxCell>
        <mxCell id="7I-5UgNqQr5wEM3YDe3Y-142" value="90" style="text;html=1;strokeColor=none;fillColor=none;align=center;verticalAlign=middle;whiteSpace=wrap;rounded=0;fontStyle=1;fontSize=19;" vertex="1" parent="1">
          <mxGeometry x="1170" y="630" width="60" height="40" as="geometry" />
        </mxCell>
        <mxCell id="7I-5UgNqQr5wEM3YDe3Y-156" value="-5" style="text;html=1;strokeColor=none;fillColor=none;align=center;verticalAlign=middle;whiteSpace=wrap;rounded=0;fontStyle=1;fontSize=19;" vertex="1" parent="1">
          <mxGeometry x="1170" y="690" width="60" height="40" as="geometry" />
        </mxCell>
        <mxCell id="7I-5UgNqQr5wEM3YDe3Y-157" value="50" style="text;html=1;strokeColor=none;fillColor=none;align=center;verticalAlign=middle;whiteSpace=wrap;rounded=0;fontStyle=1;fontSize=19;" vertex="1" parent="1">
          <mxGeometry x="1170" y="765" width="60" height="30" as="geometry" />
        </mxCell>
        <mxCell id="7I-5UgNqQr5wEM3YDe3Y-158" value="120" style="text;html=1;strokeColor=none;fillColor=none;align=center;verticalAlign=middle;whiteSpace=wrap;rounded=0;fontStyle=1;fontSize=19;" vertex="1" parent="1">
          <mxGeometry x="1170" y="830" width="60" height="40" as="geometry" />
        </mxCell>
        <mxCell id="7I-5UgNqQr5wEM3YDe3Y-159" value="10" style="text;html=1;strokeColor=none;fillColor=none;align=center;verticalAlign=middle;whiteSpace=wrap;rounded=0;fontStyle=1;fontSize=19;" vertex="1" parent="1">
          <mxGeometry x="1170" y="890" width="60" height="40" as="geometry" />
        </mxCell>
        <mxCell id="7I-5UgNqQr5wEM3YDe3Y-160" value="70" style="text;html=1;strokeColor=none;fillColor=none;align=center;verticalAlign=middle;whiteSpace=wrap;rounded=0;fontStyle=1;fontSize=19;" vertex="1" parent="1">
          <mxGeometry x="1170" y="965" width="60" height="30" as="geometry" />
        </mxCell>
        <mxCell id="7I-5UgNqQr5wEM3YDe3Y-161" value="90" style="text;html=1;strokeColor=none;fillColor=none;align=center;verticalAlign=middle;whiteSpace=wrap;rounded=0;fontStyle=1;fontSize=19;" vertex="1" parent="1">
          <mxGeometry x="1170" y="1030" width="60" height="40" as="geometry" />
        </mxCell>
        <mxCell id="7I-5UgNqQr5wEM3YDe3Y-162" value="-5" style="text;html=1;strokeColor=none;fillColor=none;align=center;verticalAlign=middle;whiteSpace=wrap;rounded=0;fontStyle=1;fontSize=19;" vertex="1" parent="1">
          <mxGeometry x="1170" y="1090" width="60" height="40" as="geometry" />
        </mxCell>
        <mxCell id="7I-5UgNqQr5wEM3YDe3Y-163" value="50" style="text;html=1;strokeColor=none;fillColor=none;align=center;verticalAlign=middle;whiteSpace=wrap;rounded=0;fontStyle=1;fontSize=19;" vertex="1" parent="1">
          <mxGeometry x="1170" y="1165" width="60" height="30" as="geometry" />
        </mxCell>
        <mxCell id="7I-5UgNqQr5wEM3YDe3Y-164" value="120" style="text;html=1;strokeColor=none;fillColor=none;align=center;verticalAlign=middle;whiteSpace=wrap;rounded=0;fontStyle=1;fontSize=19;" vertex="1" parent="1">
          <mxGeometry x="1170" y="1230" width="60" height="40" as="geometry" />
        </mxCell>
        <mxCell id="7I-5UgNqQr5wEM3YDe3Y-165" value="10" style="text;html=1;strokeColor=none;fillColor=none;align=center;verticalAlign=middle;whiteSpace=wrap;rounded=0;fontStyle=1;fontSize=19;" vertex="1" parent="1">
          <mxGeometry x="1170" y="1290" width="60" height="40" as="geometry" />
        </mxCell>
        <mxCell id="7I-5UgNqQr5wEM3YDe3Y-166" value="70" style="text;html=1;strokeColor=none;fillColor=none;align=center;verticalAlign=middle;whiteSpace=wrap;rounded=0;fontStyle=1;fontSize=19;" vertex="1" parent="1">
          <mxGeometry x="1170" y="1365" width="60" height="30" as="geometry" />
        </mxCell>
        <mxCell id="7I-5UgNqQr5wEM3YDe3Y-167" value="90" style="text;html=1;strokeColor=none;fillColor=none;align=center;verticalAlign=middle;whiteSpace=wrap;rounded=0;fontStyle=1;fontSize=19;" vertex="1" parent="1">
          <mxGeometry x="1170" y="1430" width="60" height="40" as="geometry" />
        </mxCell>
      </root>
    </mxGraphModel>
  </diagram>
</mxfile>
